<?xml version="1.0" standalone="no"?>
<!DOCTYPE svg PUBLIC "-//W3C//DTD SVG 20010904//EN"
 "http://www.w3.org/TR/2001/REC-SVG-20010904/DTD/svg10.dtd">
<svg version="1.0" xmlns="http://www.w3.org/2000/svg"
 width="687.000000pt" height="363.000000pt" viewBox="0 0 687.000000 363.000000"
 preserveAspectRatio="xMidYMid meet">

<g transform="translate(0.000000,363.000000) scale(0.100000,-0.100000)"
fill="#000000" stroke="none">
<path d="M3090 2487 l0 -173 88 -17 c48 -9 102 -18 120 -20 l32 -4 0 157 c0
143 -2 160 -20 183 -25 32 -75 47 -157 47 l-63 0 0 -173z"/>
<path d="M3604 2653 c-12 -2 -33 -17 -48 -32 l-27 -29 -2 -202 -2 -202 -28
-24 c-24 -20 -39 -24 -98 -24 -62 0 -69 2 -69 19 0 19 -1 19 -72 0 -40 -11
-94 -29 -120 -41 l-48 -20 0 -279 0 -279 80 0 c92 0 135 16 150 56 6 14 10
122 10 240 l0 214 69 0 c59 0 74 -4 98 -24 l28 -24 3 -206 3 -205 30 -26 c27
-22 39 -25 115 -25 l85 0 -3 208 -3 209 -30 43 c-16 23 -47 54 -68 68 l-38 25
33 26 c103 80 108 96 108 341 l0 200 -67 -1 c-38 -1 -78 -4 -89 -6z"/>
<path d="M3862 2199 c3 -457 3 -465 25 -505 27 -51 72 -90 143 -123 53 -25 62
-26 278 -29 l222 -3 0 300 0 301 -180 0 -180 0 0 -45 0 -45 60 0 60 0 0 -215
0 -215 -64 0 c-55 0 -69 4 -95 26 l-31 26 0 449 0 449 63 0 c44 0 71 -6 95
-20 31 -19 32 -21 32 -94 0 -92 10 -120 52 -146 26 -15 51 -20 111 -20 l77 0
0 78 c0 105 -30 167 -103 215 -101 66 -121 70 -355 75 l-213 4 3 -463z"/>
<path d="M4630 2101 l0 -561 80 0 c91 0 130 14 148 55 9 19 12 154 12 500 l0
475 95 0 95 0 0 -515 0 -515 91 0 c87 0 92 1 120 29 l29 29 0 487 0 487 76 -4
c69 -3 79 -6 100 -31 l24 -28 0 -459 0 -458 31 -26 c28 -23 39 -26 115 -26
l84 0 0 457 c0 437 -1 458 -20 498 -25 52 -83 99 -163 133 l-62 27 -427 3
-428 3 0 -560z"/>
<path d="M2622 2490 c-12 -16 -22 -34 -22 -40 0 -5 -4 -10 -9 -10 -12 0 -58
-108 -66 -155 -5 -37 -4 -42 25 -58 57 -34 76 -110 45 -184 l-15 -36 46 -56
c40 -48 102 -101 118 -101 4 0 6 22 6 50 0 100 44 154 175 214 89 41 203 82
265 97 l55 13 -103 12 c-138 17 -250 47 -323 85 -67 36 -147 119 -156 162 -8
39 -17 40 -41 7z"/>
<path d="M2316 2201 c-98 -65 -63 -174 66 -206 43 -11 113 26 137 72 19 38 19
40 1 80 -11 25 -31 48 -49 57 -42 22 -119 20 -155 -3z"/>
<path d="M1775 1961 c-49 -22 -99 -77 -115 -126 -26 -78 18 -168 103 -212 43
-23 65 -28 127 -28 65 0 82 4 129 30 118 65 145 186 63 277 -20 23 -55 49 -77
59 -55 25 -175 25 -230 0z"/>
<path d="M2360 1744 c-14 -2 -55 -12 -92 -21 -62 -15 -69 -20 -78 -49 -6 -18
-29 -53 -51 -78 -53 -60 -124 -87 -246 -94 l-91 -5 -50 -51 c-52 -55 -121
-160 -153 -233 -26 -61 -24 -65 14 -43 51 30 183 62 262 64 60 1 77 -3 119
-27 57 -33 173 -118 261 -192 73 -61 131 -103 121 -87 -4 7 3 14 20 18 15 4
39 13 53 20 14 8 41 17 59 20 28 6 36 14 34 35 -1 3 -8 49 -16 102 -26 157
-17 241 35 352 28 59 118 148 190 188 33 18 59 35 59 38 0 3 -35 14 -77 24
-75 17 -314 29 -373 19z"/>
<path d="M3100 1350 c0 -91 3 -110 15 -110 11 0 15 12 15 51 0 58 15 58 25 -2
6 -36 27 -60 41 -46 3 3 -2 29 -11 59 -14 49 -14 59 0 97 19 54 19 61 0 61 -8
0 -19 -17 -26 -42 -18 -65 -29 -68 -29 -10 0 40 -4 52 -15 52 -12 0 -15 -19
-15 -110z"/>
<path d="M3227 1453 c-4 -3 -7 -50 -7 -104 0 -87 2 -99 19 -109 57 -30 81 0
81 101 0 98 -9 119 -54 119 -18 0 -36 -3 -39 -7z m53 -109 c0 -72 -3 -95 -12
-92 -9 3 -14 34 -16 96 -2 77 0 92 13 92 12 0 15 -16 15 -96z"/>
<path d="M3350 1350 c0 -81 3 -110 13 -110 9 0 11 21 9 82 -4 104 14 96 24
-10 6 -59 10 -72 24 -72 14 0 19 12 24 58 13 111 24 125 25 30 1 -71 4 -88 16
-88 12 0 15 19 15 110 l0 110 -30 0 c-29 0 -30 -2 -31 -42 0 -24 -4 -61 -8
-83 l-8 -40 -7 60 c-12 100 -14 105 -41 105 l-25 0 0 -110z"/>
<path d="M3530 1355 c0 -93 2 -105 19 -115 61 -32 81 -2 81 121 0 92 -1 99
-20 99 -19 0 -20 -7 -20 -105 0 -87 -3 -105 -15 -105 -12 0 -15 18 -15 105 0
87 -3 105 -15 105 -12 0 -15 -18 -15 -105z"/>
<path d="M3660 1350 c0 -67 4 -110 10 -110 6 0 10 39 10 97 0 53 2 94 5 91 3
-3 10 -34 16 -69 18 -120 18 -119 50 -119 l30 0 -3 107 c-2 72 -7 108 -15 110
-9 3 -13 -22 -15 -94 l-3 -98 -18 98 c-18 91 -20 97 -43 97 -24 0 -24 0 -24
-110z"/>
<path d="M3800 1350 c0 -103 1 -110 20 -110 19 0 20 7 20 110 0 103 -1 110
-20 110 -19 0 -20 -7 -20 -110z"/>
<path d="M3860 1450 c0 -5 7 -10 15 -10 12 0 15 -18 15 -100 0 -82 3 -100 15
-100 12 0 15 17 15 96 0 87 2 96 20 101 37 10 20 23 -30 23 -27 0 -50 -4 -50
-10z"/>
<path d="M3985 1413 c-4 -26 -11 -72 -16 -102 -12 -70 -12 -71 5 -71 8 0 17
14 21 30 4 17 13 30 21 30 8 0 17 -13 21 -30 3 -17 12 -30 20 -30 12 0 13 12
8 68 -15 136 -18 147 -47 150 -25 3 -27 0 -33 -45z m39 -45 c5 -32 4 -48 -3
-48 -7 0 -11 22 -11 52 0 62 5 60 14 -4z"/>
<path d="M4113 1453 c-25 -9 -15 -72 18 -113 19 -24 29 -46 27 -61 -4 -33 -22
-30 -26 4 -5 38 -32 36 -32 -3 0 -45 52 -66 84 -34 25 25 19 59 -19 104 -36
44 -47 90 -20 90 10 0 15 -10 15 -30 0 -23 4 -30 20 -30 22 0 27 28 10 61 -10
18 -48 24 -77 12z"/>
<path d="M4292 1448 c-8 -8 -12 -46 -12 -104 0 -106 8 -119 64 -108 35 6 36 7
36 55 0 46 -2 49 -25 49 -14 0 -25 -4 -25 -10 0 -5 5 -10 11 -10 6 0 9 -14 7
-32 -2 -18 -7 -32 -13 -30 -6 1 -10 40 -10 92 0 52 4 91 10 93 6 1 11 -13 13
-30 4 -42 32 -46 32 -5 0 35 -16 52 -50 52 -14 0 -31 -5 -38 -12z"/>
<path d="M4436 1428 c-3 -18 -10 -60 -16 -92 -5 -33 -10 -68 -10 -78 0 -30 27
-20 34 12 3 18 12 30 21 30 9 0 18 -12 22 -30 3 -16 12 -30 19 -30 17 0 17 6
4 90 -21 135 -19 130 -45 130 -19 0 -25 -6 -29 -32z m43 -80 c1 -20 -4 -28
-15 -28 -12 0 -15 6 -10 23 3 12 6 36 7 52 1 29 1 30 9 5 4 -14 8 -37 9 -52z"/>
<path d="M4540 1349 l0 -110 48 3 47 3 3 95 c3 107 -4 120 -65 120 l-33 0 0
-111z m65 1 c0 -58 -4 -85 -12 -87 -10 -4 -13 18 -13 87 0 69 3 91 13 88 8 -3
12 -30 12 -88z"/>
<path d="M4728 1358 c-2 -70 -7 -103 -15 -106 -9 -2 -13 7 -13 27 0 21 -5 31
-15 31 -10 0 -15 -11 -15 -35 0 -28 4 -36 24 -41 13 -3 34 -1 45 6 19 10 21
19 21 115 0 86 -3 105 -15 105 -11 0 -15 -20 -17 -102z"/>
<path d="M4816 1448 c-2 -7 -10 -57 -18 -110 -13 -92 -13 -98 3 -98 12 0 19 9
21 27 2 17 10 29 21 31 13 3 17 -3 17 -27 0 -24 4 -31 20 -31 22 0 22 -8 -1
145 -5 33 -9 63 -9 68 0 12 -50 8 -54 -5z m34 -83 c0 -25 -4 -45 -10 -45 -5 0
-10 20 -10 45 0 25 5 45 10 45 6 0 10 -20 10 -45z"/>
<path d="M4920 1350 c0 -89 3 -110 14 -110 11 0 16 15 18 53 2 38 7 52 18 52
11 0 16 -14 18 -52 2 -38 7 -53 18 -53 11 0 14 21 14 110 0 89 -3 110 -14 110
-10 0 -16 -14 -18 -42 -2 -31 -8 -44 -20 -46 -15 -3 -18 4 -18 42 0 34 -4 46
-15 46 -12 0 -15 -19 -15 -110z"/>
<path d="M5110 1350 c0 -91 3 -110 15 -110 12 0 15 17 16 93 l1 92 15 -92 c10
-63 19 -93 28 -93 16 0 21 16 31 95 l8 60 8 -40 c4 -22 5 -57 2 -77 -5 -30 -3
-38 10 -38 14 0 16 16 16 110 0 110 0 110 -24 110 -22 0 -25 -5 -31 -47 -3
-27 -10 -61 -14 -78 -9 -30 -9 -29 -10 10 -1 22 -4 57 -7 78 -6 33 -10 37 -35
37 l-29 0 0 -110z"/>
<path d="M5301 1372 c-15 -116 -14 -132 4 -132 10 0 15 10 15 30 0 23 4 30 20
30 16 0 20 -7 20 -30 0 -23 4 -30 20 -30 24 0 23 -8 5 110 -8 52 -15 98 -15
103 0 4 -13 7 -29 7 -28 0 -28 0 -40 -88z m49 -2 c0 -27 -4 -50 -10 -50 -11 0
-14 83 -3 93 12 12 13 8 13 -43z"/>
<path d="M5420 1349 l0 -110 48 3 47 3 3 95 c3 107 -4 120 -65 120 l-33 0 0
-111z m62 11 c3 -91 2 -100 -18 -100 -11 0 -14 19 -14 90 0 71 3 90 14 90 11
0 15 -19 18 -80z"/>
<path d="M5566 1428 c-3 -18 -10 -60 -16 -92 -5 -33 -10 -68 -10 -78 0 -30 27
-20 34 12 3 18 12 30 21 30 9 0 18 -12 22 -30 3 -16 12 -30 20 -30 11 0 13 12
7 63 -16 150 -17 152 -46 155 -24 3 -28 -1 -32 -30z m43 -85 c1 -15 -5 -23
-15 -23 -13 0 -15 7 -10 31 3 17 7 41 7 53 1 15 3 13 9 -9 4 -16 8 -40 9 -52z"/>
<path d="M4416 1164 c-26 -25 -19 -63 19 -107 36 -42 47 -87 20 -87 -10 0 -15
10 -15 30 0 23 -4 30 -20 30 -16 0 -20 -7 -20 -30 0 -50 65 -75 92 -36 16 23
7 65 -22 102 -19 23 -30 47 -28 61 5 36 23 32 26 -4 5 -46 32 -44 32 2 0 50
-50 73 -84 39z"/>
<path d="M3100 1065 c0 -105 0 -106 26 -116 20 -7 32 -6 50 6 23 15 24 21 24
115 0 93 -1 100 -20 100 -18 0 -20 -8 -22 -100 -4 -132 -22 -132 -26 0 -2 80
-6 100 -17 100 -12 0 -15 -19 -15 -105z"/>
<path d="M3220 1060 c0 -91 3 -110 15 -110 12 0 15 18 16 98 1 107 9 99 29
-25 11 -67 14 -73 36 -73 24 0 24 0 24 110 0 137 -18 148 -22 13 l-3 -98 -13
70 c-24 132 -21 125 -53 125 l-29 0 0 -110z"/>
<path d="M3360 1160 c0 -5 9 -10 20 -10 19 0 20 -7 20 -100 0 -82 3 -100 15
-100 12 0 15 18 15 100 0 93 1 100 20 100 11 0 20 5 20 10 0 6 -25 10 -55 10
-30 0 -55 -4 -55 -10z"/>
<path d="M3480 1070 c0 -94 1 -100 24 -115 18 -12 30 -13 50 -6 26 10 26 11
26 116 0 86 -3 105 -15 105 -11 0 -15 -20 -17 -100 -4 -132 -22 -132 -26 0 -2
92 -4 100 -22 100 -19 0 -20 -7 -20 -100z"/>
<path d="M3610 1060 c0 -103 1 -110 20 -110 18 0 19 5 15 43 -8 69 11 79 25
13 9 -43 16 -56 30 -56 17 0 17 3 3 48 -13 44 -12 94 3 150 5 16 2 22 -9 22
-9 0 -19 -17 -26 -45 -14 -55 -31 -51 -24 5 5 36 3 40 -16 40 -20 0 -21 -4
-21 -110z"/>
<path d="M3800 1060 c0 -89 3 -110 15 -110 10 0 15 15 17 58 l3 57 18 -57 c11
-35 24 -58 33 -58 18 0 18 15 0 74 -13 41 -13 53 0 88 17 50 18 58 1 58 -8 0
-19 -18 -26 -40 -17 -57 -31 -59 -31 -6 0 34 -4 46 -15 46 -12 0 -15 -19 -15
-110z"/>
<path d="M3920 1060 l0 -110 40 0 c22 0 40 5 40 10 0 6 -11 10 -25 10 -23 0
-25 4 -25 45 0 41 2 45 25 45 14 0 25 5 25 10 0 6 -11 10 -25 10 -22 0 -25 4
-25 35 0 31 3 35 25 35 14 0 25 5 25 10 0 6 -18 10 -40 10 l-40 0 0 -110z"/>
<path d="M4020 1060 c0 -103 1 -110 20 -110 18 0 20 7 20 56 0 73 24 70 28 -4
3 -44 6 -52 22 -52 17 0 19 6 15 48 -2 26 -4 50 -5 55 0 4 -8 7 -17 7 -14 0
-13 3 5 20 24 23 27 41 12 71 -8 14 -21 19 -55 19 l-45 0 0 -110z m70 55 c0
-24 -5 -35 -15 -35 -10 0 -15 11 -15 35 0 24 5 35 15 35 10 0 15 -11 15 -35z"/>
<path d="M4208 1068 c-2 -70 -7 -103 -15 -106 -9 -2 -13 8 -13 32 0 29 -4 36
-20 36 -15 0 -20 -7 -20 -25 0 -27 31 -65 53 -65 37 0 46 23 49 128 3 91 1
102 -14 102 -15 0 -18 -13 -20 -102z"/>
<path d="M4281 1078 c-7 -51 -15 -101 -18 -111 -4 -14 0 -18 14 -15 11 2 19
13 21 31 5 39 38 37 46 -3 3 -18 12 -30 21 -30 11 0 15 6 11 18 -2 9 -7 46
-11 82 -11 113 -13 120 -44 120 -27 0 -27 -2 -40 -92z m49 7 c0 -30 -4 -55
-10 -55 -11 0 -14 69 -4 94 11 27 14 18 14 -39z"/>
<path d="M4541 1078 c-7 -51 -15 -101 -17 -110 -4 -13 0 -18 15 -18 17 0 21 6
21 30 0 23 4 30 20 30 16 0 20 -7 20 -30 0 -23 4 -30 20 -30 16 0 19 5 16 23
-3 12 -10 61 -17 110 -12 84 -13 87 -39 87 -26 0 -26 -2 -39 -92z m49 2 c0
-27 -4 -50 -10 -50 -11 0 -14 83 -3 93 12 12 13 8 13 -43z"/>
<path d="M4660 1060 c0 -91 3 -110 15 -110 12 0 15 17 16 88 l2 87 9 -65 c14
-99 17 -110 32 -110 9 0 18 28 28 88 l16 87 1 -87 c1 -71 4 -88 16 -88 12 0
15 19 15 110 l0 110 -25 0 c-27 0 -28 -2 -43 -105 l-8 -60 -8 60 c-12 100 -14
105 -41 105 l-25 0 0 -110z"/>
<path d="M4856 1138 c-3 -18 -8 -58 -11 -88 -4 -30 -8 -65 -11 -77 -3 -16 0
-23 10 -23 8 0 17 14 21 30 5 21 13 30 26 30 14 0 19 -7 19 -30 0 -23 5 -30
19 -30 13 0 17 6 15 23 -2 12 -8 61 -15 110 -11 86 -11 87 -39 87 -23 0 -29
-5 -34 -32z m44 -58 c0 -21 -4 -42 -10 -45 -6 -4 -10 13 -10 45 0 32 4 49 10
45 6 -3 10 -24 10 -45z"/>
<path d="M5030 1060 l0 -110 38 0 c21 0 43 5 50 12 19 19 15 85 -5 98 -17 10
-17 10 0 20 20 13 23 60 5 78 -7 7 -29 12 -50 12 l-38 0 0 -110z m60 55 c0
-24 -5 -35 -15 -35 -15 0 -22 50 -8 63 15 15 23 5 23 -28z m0 -100 c0 -33 -4
-45 -15 -45 -11 0 -15 11 -15 38 0 21 3 42 7 45 16 16 23 4 23 -38z"/>
<path d="M5160 1060 l0 -110 40 0 c22 0 40 5 40 10 0 6 -11 10 -25 10 -23 0
-25 4 -25 45 0 41 2 45 25 45 14 0 25 5 25 10 0 6 -11 10 -25 10 -22 0 -25 4
-25 35 0 31 3 35 25 35 14 0 25 5 25 10 0 6 -18 10 -40 10 l-40 0 0 -110z"/>
<path d="M5260 1060 c0 -91 3 -110 15 -110 12 0 15 13 15 55 0 42 4 55 15 55
14 0 28 -34 25 -61 -5 -31 1 -49 15 -49 23 0 21 95 -2 110 -17 10 -17 10 0 20
20 13 23 60 5 78 -7 7 -29 12 -50 12 l-38 0 0 -110z m60 55 c0 -24 -5 -35 -15
-35 -10 0 -15 11 -15 35 0 24 5 35 15 35 10 0 15 -11 15 -35z"/>
<path d="M5390 1060 c0 -91 3 -110 15 -110 11 0 15 13 16 58 l1 57 17 -55 c11
-36 23 -56 35 -58 13 -3 17 1 12 15 -25 84 -27 109 -11 152 8 24 13 46 11 49
-13 12 -34 -10 -47 -49 l-14 -44 -3 48 c-2 33 -7 47 -18 47 -11 0 -14 -21 -14
-110z"/>
<path d="M5510 1060 l0 -110 40 0 c22 0 40 5 40 10 0 6 -11 10 -25 10 -23 0
-25 4 -25 45 0 41 2 45 25 45 14 0 25 5 25 10 0 6 -11 10 -25 10 -22 0 -25 4
-25 35 0 31 3 35 25 35 14 0 25 5 25 10 0 6 -18 10 -40 10 l-40 0 0 -110z"/>
<path d="M5610 1060 l0 -110 40 0 c42 0 56 16 18 22 -22 3 -23 8 -26 101 -2
77 -6 97 -17 97 -12 0 -15 -20 -15 -110z"/>
<path d="M5746 1138 c-3 -18 -10 -60 -16 -92 -5 -33 -10 -68 -10 -78 0 -30 27
-20 34 12 3 17 12 30 20 30 7 0 16 -13 20 -30 3 -18 12 -30 21 -30 18 0 18 9
5 103 -17 115 -18 117 -45 117 -19 0 -25 -6 -29 -32z m34 -60 c0 -38 -3 -49
-11 -41 -10 10 -4 93 7 93 2 0 4 -23 4 -52z"/>
<path d="M5854 1068 c5 -127 4 -118 16 -118 6 0 10 40 11 98 l1 97 14 -75 c23
-123 22 -120 49 -120 l25 0 0 110 c0 67 -4 110 -10 110 -6 0 -10 -39 -10 -97
-1 -113 -11 -107 -30 15 -12 81 -13 82 -41 82 l-29 0 4 -102z"/>
<path d="M6058 1068 c-2 -70 -7 -103 -15 -106 -9 -2 -13 8 -13 32 0 25 -4 36
-15 36 -10 0 -15 -11 -15 -35 0 -42 25 -60 64 -45 26 9 26 11 26 115 0 86 -3
105 -15 105 -11 0 -15 -20 -17 -102z"/>
<path d="M6122 1068 c3 -97 4 -103 27 -114 14 -7 33 -9 45 -5 19 8 21 17 24
115 2 89 0 106 -12 106 -12 0 -16 -19 -18 -102 -2 -84 -6 -103 -18 -103 -12 0
-16 19 -18 103 -2 83 -6 102 -18 102 -12 0 -14 -17 -12 -102z"/>
<path d="M6240 1161 c0 -5 9 -11 20 -14 18 -5 20 -14 20 -101 0 -79 3 -96 15
-96 12 0 15 18 15 100 0 82 3 100 15 100 8 0 15 5 15 10 0 6 -22 10 -50 10
-27 0 -50 -4 -50 -9z"/>
<path d="M6370 1158 c-1 -7 -7 -57 -14 -110 -10 -82 -10 -98 1 -98 7 0 16 14
20 30 7 39 43 43 43 5 0 -22 24 -45 35 -33 2 2 0 37 -6 78 -18 144 -17 140
-49 140 -17 0 -30 -5 -30 -12z m40 -78 c0 -27 -4 -50 -10 -50 -5 0 -10 23 -10
50 0 28 5 50 10 50 6 0 10 -22 10 -50z"/>
<path d="M6480 1060 c0 -67 4 -110 10 -110 6 0 10 39 10 96 0 55 4 93 9 90 5
-4 15 -47 22 -96 13 -89 13 -90 41 -90 l28 0 0 110 c0 91 -3 110 -15 110 -12
0 -15 -18 -16 -92 l-2 -93 -15 93 c-15 91 -16 92 -44 92 l-28 0 0 -110z"/>
</g>
</svg>
